# xmcd
#
# Track frame offsets:
#	150
#	17442
#	33414
#	50279
#	70532
#	86904
#	100754
#	116397
#	132211
#	150364
#	165587
#	180378
#	197050
#	210631
#	225744
#	238335
#	248523
#	261661
#	276135
#	292765
#	307715
#	321601
#	337805
#
# Disc length: 4655 seconds
#
# Revision: 0
# Processed by: cddbd v1.5.1PL0 Copyright (c) Steve Scherf et al.
# Submitted via: dBpowerAMP V4.0
#
DISCID=30122d17
DTITLE=5ta estacion - 5ta estacion
DYEAR=1900
DGENRE=Pop
TTITLE0=el sol no regresa
TTITLE1=espera despierta
TTITLE2=daria
TTITLE3=algo mas
TTITLE4=flores de alquiler
TTITLE5=mi ciudad
TTITLE6=busco tu piel
TTITLE7=a cada paso
TTITLE8=niña
TTITLE9=no hay perdo
TTITLE10=rompe el amr
TTITLE11=si yo fuera mujer
TTITLE12=voy a pasarmela bien
TTITLE13=donde iran 
TTITLE14=no quiero perderte
TTITLE15=ayer
TTITLE16=solo es un minuto
TTITLE17=cinco estaciones
TTITLE18=perdicion
TTITLE19=perdiendo el control
TTITLE20=nada seria igual
TTITLE21=cuando acaba
TTITLE22=cerca de ty
EXTD=hola q buen cosa
EXTT0=
EXTT1=
EXTT2=
EXTT3=
EXTT4=
EXTT5=
EXTT6=
EXTT7=
EXTT8=
EXTT9=
EXTT10=
EXTT11=
EXTT12=
EXTT13=
EXTT14=
EXTT15=
EXTT16=
EXTT17=
EXTT18=
EXTT19=
EXTT20=
EXTT21=
EXTT22=
PLAYORDER=
